<svg width="56" height="56" viewBox="0 0 56 56" fill="none" xmlns="http://www.w3.org/2000/svg">
<circle cx="28" cy="28" r="27" stroke="#68F9FC" stroke-width="2"/>
<g clip-path="url(#clip0_2035_7737)">
<path d="M40.4775 25.5676L21.42 16.0301C21.0431 15.8488 20.6307 15.7532 20.2125 15.7501C19.8571 15.7477 19.5048 15.8158 19.1758 15.9502C18.8468 16.0846 18.5476 16.2827 18.2955 16.5332C18.0434 16.7837 17.8433 17.0815 17.7068 17.4097C17.5703 17.7378 17.5 18.0897 17.5 18.4451V37.5551C17.5 37.9104 17.5703 38.2623 17.7068 38.5904C17.8433 38.9186 18.0434 39.2164 18.2955 39.4669C18.5476 39.7174 18.8468 39.9156 19.1758 40.05C19.5048 40.1844 19.8571 40.2524 20.2125 40.2501C20.6307 40.2469 21.0431 40.1513 21.42 39.9701L40.4775 30.4326C40.9314 30.2086 41.3136 29.8621 41.5809 29.4322C41.8481 29.0023 41.9897 28.5062 41.9897 28.0001C41.9897 27.4939 41.8481 26.9978 41.5809 26.5679C41.3136 26.1381 40.9314 25.7915 40.4775 25.5676Z" fill="#68F9FC"/>
</g>
<defs>
<clipPath id="clip0_2035_7737">
<rect width="24.5" height="24.5" fill="white" transform="translate(17.5 15.75)"/>
</clipPath>
</defs>
</svg>
