<svg width="16" height="16" viewBox="0 0 16 16" fill="none" xmlns="http://www.w3.org/2000/svg">
<circle cx="8" cy="8" r="8" fill="#FFC000"/>
<path d="M3.15203 8.65916C3.38177 8.96685 3.68741 9.18634 3.92536 9.34019C3.75305 9.72993 3.69972 10.3248 3.69562 10.3535C3.69152 10.6325 3.72844 10.8971 3.80228 11.1494C4.00331 11.8345 4.46075 12.4007 5.09049 12.7453C5.49049 12.9628 5.92946 13.0735 6.37049 13.0735C6.6228 13.0735 6.87921 13.0366 7.12741 12.9648C7.49664 12.8438 7.80639 12.6202 8.02793 12.4417C8.34177 12.7248 8.87305 12.9586 8.89767 12.9689C9.15408 13.0551 9.44126 13.1063 9.71408 13.1125C9.73664 13.1125 9.75921 13.1125 9.77972 13.1125C11.2279 13.1125 12.4218 11.9535 12.4566 10.4992C12.4546 10.1115 12.3336 9.74019 12.229 9.46531C12.5961 9.25403 12.9879 8.81096 13.0043 8.79044L13.0166 8.77608L13.0269 8.74942C13.1828 8.53403 13.3059 8.30019 13.39 8.05608C13.6238 7.38121 13.5787 6.65506 13.2648 6.0089C12.951 5.3648 12.4074 4.8807 11.7325 4.6489C11.3736 4.53608 11.0064 4.53608 10.7254 4.55044C10.6372 4.13813 10.35 3.63967 10.3356 3.61711C10.1797 3.39557 9.97664 3.18429 9.76126 3.01814C9.19511 2.58121 8.49357 2.39249 7.78177 2.4848C7.07203 2.57711 6.44023 2.93814 6.00331 3.50429C5.77152 3.82429 5.65254 4.19352 5.5787 4.46839C5.15613 4.42326 4.57562 4.55249 4.54895 4.55865C4.29049 4.6407 4.02998 4.77198 3.80639 4.92788C3.22177 5.33813 2.82998 5.95147 2.7069 6.65711C2.58587 7.36275 2.74177 8.07454 3.15203 8.65916ZM4.42587 8.41301C4.25152 8.29403 4.08126 8.15865 4.00741 8.05814C3.75716 7.71147 3.6587 7.28685 3.73049 6.86019C3.80434 6.42121 4.04434 6.03967 4.40946 5.78531C4.41357 5.78326 4.41767 5.78121 4.42177 5.77711L4.42998 5.77301C4.44228 5.76685 4.46075 5.7566 4.48331 5.74224C4.95511 5.4407 5.47408 5.5248 5.48023 5.52685L8.0669 5.98224C8.27408 5.99454 8.48946 5.93301 8.67203 5.80378C8.87921 5.65813 9.01869 5.4407 9.06177 5.19044C9.10485 4.94019 9.04946 4.68788 8.90382 4.4807C8.75818 4.27352 8.54075 4.13403 8.29049 4.09096C8.04023 4.04788 7.78793 4.10326 7.58075 4.2489C7.40434 4.37198 7.27716 4.55044 7.21562 4.75557L6.62075 4.65096C6.68229 4.44788 6.76023 4.24275 6.83613 4.14224C7.09254 3.79967 7.46793 3.58019 7.89664 3.5207C8.33767 3.45916 8.77459 3.57608 9.12536 3.84685L9.14382 3.86121C9.15203 3.87147 9.16844 3.88583 9.18895 3.90224C9.61972 4.26326 9.69152 4.78429 9.69152 4.78839L10.03 7.39352C10.0792 7.5966 10.2043 7.78121 10.3807 7.91865C10.549 8.04788 10.75 8.11557 10.9592 8.11557C11.0002 8.11557 11.0413 8.11352 11.0823 8.10737C11.3346 8.07454 11.5582 7.94531 11.712 7.74429C12.032 7.32993 11.9541 6.73096 11.5397 6.41096C11.3695 6.27967 11.1623 6.20993 10.9469 6.21403L10.8669 5.59044C11.072 5.58634 11.2792 5.59455 11.3941 5.63352C11.8002 5.76685 12.1284 6.05403 12.3213 6.44172C12.5182 6.83967 12.549 7.29096 12.4033 7.71147L12.3951 7.73403C12.389 7.74429 12.3787 7.7648 12.3705 7.78942C12.1654 8.31044 11.6956 8.54634 11.6895 8.54839L9.32844 9.69711C9.15203 9.80788 9.01459 9.98634 8.9428 10.1976C8.86075 10.4376 8.8751 10.6961 8.98587 10.9238C9.09664 11.1515 9.28946 11.3238 9.52946 11.4058C9.63203 11.4407 9.73664 11.4592 9.84126 11.4592C9.9828 11.4592 10.1243 11.4263 10.2556 11.3628C10.4833 11.252 10.6556 11.0592 10.7377 10.8192C10.8074 10.6161 10.8074 10.3966 10.7356 10.1956L11.2915 9.9248C11.3572 10.1217 11.4146 10.3433 11.4125 10.4745C11.4084 10.9012 11.2341 11.3033 10.9243 11.6027C10.6043 11.9125 10.1859 12.0766 9.74075 12.0663L9.71818 12.0643C9.70587 12.0622 9.68331 12.0581 9.6587 12.0561C9.09664 12.0192 8.73152 11.6417 8.72946 11.6376L6.91818 9.73608C6.75818 9.60275 6.54895 9.5248 6.32536 9.5207C6.071 9.51454 5.831 9.60685 5.64639 9.78326C5.46177 9.95762 5.35716 10.1935 5.351 10.4479C5.3387 10.971 5.75305 11.4079 6.27818 11.4202C6.49357 11.4263 6.70075 11.3586 6.87305 11.2294L7.30177 11.6807C7.13357 11.8058 6.95305 11.9248 6.83408 11.9617C6.42587 12.0889 5.991 12.0458 5.60946 11.8407C5.21767 11.6315 4.93254 11.2807 4.80741 10.854L4.80126 10.8315C4.79921 10.8192 4.79511 10.7966 4.78895 10.772C4.65357 10.2284 4.89972 9.76275 4.90177 9.75865L6.15921 7.45301C6.23716 7.26019 6.24741 7.0366 6.18382 6.82326C6.03613 6.3207 5.5069 6.03147 5.00434 6.17916C4.50177 6.32685 4.21254 6.85608 4.36023 7.35865C4.42177 7.56583 4.54895 7.74224 4.72331 7.86531L4.42587 8.41301Z" fill="black"/>
<path d="M8.20628 9.01608C8.71608 9.01608 9.12936 8.6028 9.12936 8.093C9.12936 7.5832 8.71608 7.16992 8.20628 7.16992C7.69648 7.16992 7.2832 7.5832 7.2832 8.093C7.2832 8.6028 7.69648 9.01608 8.20628 9.01608Z" fill="black"/>
</svg>
